<?xml version="1.0" encoding="utf-8"?>
<!-- Generator: Adobe Illustrator 25.0.1, SVG Export Plug-In . SVG Version: 6.00 Build 0)  -->
<svg version="1.1" id="Слой_8__x28_копия_x29_"
	 xmlns="http://www.w3.org/2000/svg" xmlns:xlink="http://www.w3.org/1999/xlink" x="0px" y="0px" viewBox="0 0 132.39 65.89"
	 style="enable-background:new 0 0 132.39 65.89;" xml:space="preserve">
<style type="text/css">
	.st0{stroke:#000000;stroke-miterlimit:10;}
	.st1{fill:#FFFFFF;}
	.st2{font-family:'Corbel';}
	.st3{font-size:26px;}
</style>
<rect x="59.81" y="15.18" class="st0" width="25.23" height="20.34"/>
<rect x="107.19" y="20.17" transform="matrix(6.123234e-17 -1 1 6.123234e-17 89.7238 152.5563)" width="27.9" height="22.5"/>
<text transform="matrix(1 0 0 1 65.5047 31.4163)" class="st1 st2 st3">o</text>
<g>
	<text transform="matrix(1 0 0 1 114.2196 37.4768)" class="st1 st2 st3">o</text>
</g>
<g>
	<path d="M49.85,47.04c-0.5,2.38-1.07,4.84-1.72,7.38l-2.87,11.47h-4.67l-8.13-25.59h4.99l3.08,10.19c0.93,3.2,1.68,6.09,2.26,8.68
		h0.11c0.56-2.78,1.21-5.63,1.95-8.55l2.64-10.33h4.82l2.64,10.33c0.74,2.89,1.39,5.74,1.95,8.55h0.11c0.7-3.06,1.45-5.95,2.26-8.68
		l3.08-10.19h4.99l-8.13,25.59h-4.67l-2.87-11.47c-0.65-2.59-1.22-5.05-1.72-7.38H49.85z"/>
	<path d="M81.11,63.93h-0.08c-0.26,0.27-0.56,0.54-0.92,0.82c-0.36,0.28-0.76,0.54-1.22,0.79c-0.46,0.25-0.97,0.45-1.53,0.6
		c-0.56,0.15-1.17,0.23-1.82,0.23c-0.88,0-1.7-0.14-2.47-0.41c-0.76-0.27-1.42-0.67-1.97-1.19c-0.55-0.52-0.98-1.14-1.29-1.87
		c-0.31-0.73-0.47-1.55-0.47-2.46c0-0.99,0.18-1.89,0.54-2.68c0.36-0.79,0.87-1.46,1.52-2.01c0.65-0.55,1.43-0.97,2.33-1.25
		s1.91-0.43,3-0.43c0.8,0,1.54,0.05,2.22,0.15c0.68,0.1,1.27,0.22,1.78,0.36v-0.75c0-0.43-0.07-0.85-0.22-1.25
		c-0.15-0.4-0.38-0.76-0.71-1.07s-0.75-0.56-1.27-0.75c-0.52-0.18-1.16-0.28-1.91-0.28c-0.92,0-1.84,0.1-2.75,0.31
		c-0.92,0.2-1.91,0.51-2.98,0.92v-3.54c0.93-0.41,1.92-0.72,2.96-0.94c1.04-0.22,2.14-0.33,3.29-0.34c1.35,0,2.53,0.17,3.55,0.5
		c1.01,0.33,1.86,0.79,2.54,1.37c0.68,0.58,1.19,1.27,1.53,2.06c0.34,0.79,0.51,1.65,0.51,2.58v6.98c0,1.22,0.01,2.28,0.04,3.16
		c0.03,0.88,0.05,1.66,0.08,2.35h-4.09L81.11,63.93z M80.75,58c-0.43-0.1-0.93-0.19-1.49-0.28c-0.56-0.08-1.13-0.12-1.7-0.12
		c-1.11,0-1.99,0.22-2.63,0.66c-0.64,0.44-0.97,1.11-0.97,2.02c0,0.42,0.07,0.79,0.22,1.1c0.15,0.31,0.34,0.57,0.59,0.77
		c0.25,0.2,0.54,0.36,0.87,0.46s0.68,0.15,1.05,0.15c0.46,0,0.89-0.06,1.3-0.18c0.41-0.12,0.78-0.27,1.13-0.46
		c0.34-0.18,0.65-0.39,0.93-0.62c0.27-0.23,0.51-0.45,0.7-0.67V58z"/>
	<path d="M90.56,65.89V38.21h4.53v27.69H90.56z"/>
	<path d="M100.45,65.89V38.21h4.53v27.69H100.45z"/>
</g>
<rect y="11.58" width="28.72" height="39.13"/>
<rect x="31.08" y="0.87" class="st0" width="26.08" height="34.66"/>
<rect x="84.83" y="8.87" transform="matrix(-1.836970e-16 1 -1 -1.836970e-16 116.9111 -78.8304)" width="26.08" height="20.35"/>
<g>
	<text transform="matrix(1 0 0 1 92.6436 27.8421)" class="st1 st2 st3">t</text>
</g>
<g>
	<text transform="matrix(1 0 0 1 7.4189 41.0605)" class="st1 st2 st3">P</text>
</g>
<text transform="matrix(1 0 0 1 37.0295 26.7257)" class="st1 st2 st3">h</text>
</svg>
